#!OML:ASF E:\Style3\Style3.ASF
:FULLY-SPECIFIED
:DEGREES
3318
root -0.335184 17.3873 2.87376 -1430.53 125.076 -1435.63
lowerback -1.76194 4.97827 -8.71105
upperback 1.58283 6.96381 -1.20027
thorax 1.75617 3.37642 3.76686
lowerneck -4.99086 -12.1943 -8.84077
upperneck 28.4371 -20.2328 23.7171
head 14.3712 -6.65696 8.37778
rclavicle -1.39149e-014 1.59028e-015
rhumerus 107.254 31.5604 15.4583
rradius 65.867
rwrist -21.4843
rhand 14.8309 13.1406
rfingers 7.12502
rthumb 39.6925 -12.1775
lclavicle -1.39149e-014 1.59028e-015
lhumerus -10.3637 -56.136 105.755
lradius 126.069
lwrist 70.603
lhand -41.5656 35.5052
lfingers 7.12502
lthumb -14.4766 64.9802
rfemur -15.2673 -12.3128 28.1185
rtibia 31.0933
rfoot -22.2594 -26.7722
rtoes -9.6823
lfemur -21.2991 -21.888 -1.75822
ltibia 16.3204
lfoot -2.87006 9.36971
ltoes -36.4561
3319
root -0.330322 17.387 2.91171 -1430.64 125.679 -1435.63
lowerback -1.68914 5.00017 -8.71459
upperback 1.57168 6.98094 -1.12246
thorax 1.69124 3.38696 3.84011
lowerneck -4.88718 -12.2171 -8.83764
upperneck 28.4331 -20.2634 23.8825
head 14.3854 -6.64404 8.4602
rclavicle 5.96354e-015 1.90833e-014
rhumerus 107.501 31.5853 15.7223
rradius 67.0089
rwrist -22.1021
rhand 15.1838 13.1072
rfingers 7.12502
rthumb 40.0247 -12.1114
lclavicle 5.96354e-015 1.90833e-014
lhumerus -10.6602 -56.1977 105.809
lradius 126.187
lwrist 70.6056
lhand -42.1048 35.3414
lfingers 7.12502
lthumb -14.9961 64.7784
rfemur -15.182 -12.3648 28.3404
rtibia 31.0089
rfoot -22.4996 -27.1535
rtoes -9.71867
lfemur -21.3933 -21.992 -1.63597
ltibia 16.1296
lfoot -2.51894 9.06471
ltoes -37.0393
3320
root -0.322238 17.3868 2.94811 -1430.61 126.254 -1435.41
lowerback -1.66438 5.05047 -8.61856
upperback 1.59568 7.0374 -0.978555
thorax 1.6876 3.41379 3.93417
lowerneck -4.80629 -12.2693 -8.87879
upperneck 28.5029 -20.3268 23.9695
head 14.4394 -6.65256 8.51457
rclavicle -6.93758e-014 7.15625e-015
rhumerus 107.65 31.6283 15.9305
rradius 68.2038
rwrist -22.6749
rhand 15.6571 12.9809
rfingers 7.12502
rthumb 40.4699 -12.1017
lclavicle -6.93758e-014 7.15625e-015
lhumerus -10.8895 -56.223 105.908
lradius 126.306
lwrist 70.7591
lhand -42.6085 35.1307
lfingers 7.12502
lthumb -15.4813 64.5309
rfemur -15.0122 -12.4218 28.7079
rtibia 30.9146
rfoot -22.6061 -27.5095
rtoes -9.23825
lfemur -21.4488 -22.2951 -1.3457
ltibia 16.0181
lfoot -2.26677 9.02187
ltoes -37.3766
3321
root -0.317022 17.3885 2.98322 -1430.66 126.802 -1435.37
lowerback -1.74574 5.09326 -8.63456
upperback 1.64115 7.10025 -0.836771
thorax 1.75254 3.43879 4.0989
lowerneck -4.63583 -12.2881 -8.89874
upperneck 28.4352 -20.3216 24.0587
head 14.3863 -6.64881 8.56448
rclavicle 1.90833e-014 -7.95139e-016
rhumerus 107.809 31.6395 16.1494
rradius 69.331
rwrist -23.129
rhand 15.9082 13.1026
rfingers 7.12502
rthumb 40.7058 -11.9066
lclavicle 1.90833e-014 -7.95139e-016
lhumerus -10.8642 -56.2265 105.873
lradius 126.387
lwrist 70.8848
lhand -42.7794 35.2281
lfingers 7.12502
lthumb -15.6459 64.6154
rfemur -14.8822 -12.5302 28.9733
rtibia 30.7923
rfoot -22.6355 -27.7649
rtoes -7.83956
lfemur -21.6227 -22.7344 -1.11334
ltibia 15.9771
lfoot -1.97194 9.12536
ltoes -37.7868
3322
root -0.31697 17.3911 3.01578 -1430.67 127.322 -1435.44
lowerback -1.90578 5.16832 -8.71842
upperback 1.65603 7.21433 -0.705152
thorax 1.81592 3.48904 4.29619
lowerneck -4.55006 -12.3582 -8.92457
upperneck 28.3083 -20.3927 24.1397
head 14.3441 -6.68084 8.5851
rclavicle 4.1546e-014 -1.90833e-014
rhumerus 107.985 31.5436 16.4771
rradius 70.2805
rwrist -23.6584
rhand 16.0037 13.4059
rfingers 7.12502
rthumb 40.7955 -11.5751
lclavicle 4.1546e-014 -1.90833e-014
lhumerus -10.7915 -56.3787 105.887
lradius 126.419
lwrist 70.8714
lhand -42.8579 35.2289
lfingers 7.12502
lthumb -15.7215 64.6103
rfemur -14.9122 -12.5932 29.1638
rtibia 30.6587
rfoot -22.7471 -27.9861
rtoes -6.67515
lfemur -21.971 -23.0477 -0.922446
ltibia 15.9779
lfoot -1.81895 9.17478
ltoes -37.2184
3323
root -0.318728 17.3953 3.04633 -1430.49 127.864 -1435.29
lowerback -2.01771 5.24815 -8.57821
upperback 1.64181 7.32079 -0.592154
thorax 1.85081 3.54094 4.34692
lowerneck -4.62464 -12.4648 -8.86462
upperneck 28.3125 -20.5364 24.1508
head 14.3958 -6.71761 8.55236
rclavicle -4.19436e-014 7.95139e-016
rhumerus 108.152 31.3787 16.708
rradius 71.2392
rwrist -24.278
rhand 16.1337 13.5545
rfingers 7.12502
rthumb 40.9177 -11.3879
lclavicle -4.19436e-014 7.95139e-016
lhumerus -10.8058 -56.6296 105.936
lradius 126.432
lwrist 70.5273
lhand -42.8709 35.1883
lfingers 7.12502
lthumb -15.734 64.5687
rfemur -14.9827 -12.553 29.4811
rtibia 30.5307
rfoot -22.9293 -28.3118
rtoes -6.15426
lfemur -22.3426 -23.098 -0.653314
ltibia 15.9983
lfoot -1.68898 9.03491
ltoes -36.4754
3324
root -0.320127 17.4021 3.07651 -1430.45 128.379 -1435.28
lowerback -2.10969 5.25872 -8.47282
upperback 1.63148 7.33733 -0.540697
thorax 1.89489 3.54807 4.35202
lowerneck -4.73164 -12.5025 -8.71082
upperneck 28.4254 -20.58 24.0576
head 14.4476 -6.69998 8.4827
rclavicle -8.56762e-014 5.48646e-014
rhumerus 108.404 31.1009 16.8449
rradius 72.3796
rwrist -24.8476
rhand 16.2694 13.6123
rfingers 7.12502
rthumb 41.0452 -11.2897
lclavicle -8.56762e-014 5.48646e-014
lhumerus -10.6871 -56.959 105.804
lradius 126.428
lwrist 69.5991
lhand -43.2177 34.7679
lfingers 7.12502
lthumb -16.068 64.1217
rfemur -15.06 -12.5021 29.6921
rtibia 30.4144
rfoot -22.9249 -28.6963
rtoes -5.7597
lfemur -22.6461 -22.9113 -0.574555
ltibia 16.0278
lfoot -1.53359 8.65082
ltoes -35.8298
3325
root -0.320156 17.4076 3.10506 -1430.47 128.851 -1435.39
lowerback -2.29699 5.2306 -8.40631
upperback 1.62423 7.31441 -0.515161
thorax 1.99985 3.5324 4.36215
lowerneck -4.67789 -12.494 -8.66857
upperneck 28.4617 -20.5411 24.0204
head 14.4295 -6.6742 8.47323
rclavicle -1.09332e-014 7.95139e-016
rhumerus 108.651 30.8856 16.9044
rradius 73.6333
rwrist -25.2657
rhand 16.3257 13.6935
rfingers 7.12502
rthumb 41.098 -11.1916
lclavicle -1.09332e-014 7.95139e-016
lhumerus -10.4896 -57.1426 105.536
lradius 126.437
lwrist 68.7024
lhand -43.5424 34.6055
lfingers 7.12502
lthumb -16.3806 63.9337
rfemur -15.1517 -12.3761 29.817
rtibia 30.3017
rfoot -23.0278 -29.0528
rtoes -4.52212
lfemur -22.9514 -22.6039 -0.613536
ltibia 16.0691
lfoot -1.24776 8.13229
ltoes -36.0195
3326
root -0.323155 17.4079 3.13038 -1430.46 129.334 -1435.39
lowerback -2.4067 5.26324 -8.24841
upperback 1.60307 7.35763 -0.440836
thorax 2.04222 3.55366 4.36363
lowerneck -4.52683 -12.536 -8.85514
upperneck 28.4456 -20.5765 24.1528
head 14.4474 -6.69908 8.573
rclavicle -6.83819e-014 1.98785e-014
rhumerus 108.766 30.8185 16.997
rradius 74.8699
rwrist -25.5593
rhand 16.2122 13.6913
rfingers 7.12502
rthumb 40.9914 -11.2278
lclavicle -6.83819e-014 1.98785e-014
lhumerus -10.3617 -57.1977 105.465
lradius 126.462
lwrist 68.5115
lhand -43.7576 34.8963
lfingers 7.12502
lthumb -16.5879 64.2074
rfemur -15.2152 -12.3241 29.9806
rtibia 30.2257
rfoot -23.268 -29.3152
rtoes -2.93437
lfemur -23.2734 -22.1836 -0.67178
ltibia 16.1049
lfoot -0.960895 7.61971
ltoes -36.0186
3327
root -0.328459 17.4064 3.15414 -1430.45 129.85 -1435.31
lowerback -2.47303 5.33431 -8.11542
upperback 1.64047 7.44861 -0.273346
thorax 2.09978 3.59538 4.47342
lowerneck -4.50585 -12.6345 -9.03875
upperneck 28.4209 -20.6955 24.2376
head 14.5042 -6.75889 8.62536
rclavicle 6.43068e-014 3.97569e-015
rhumerus 108.906 30.5052 17.3253
rradius 75.949
rwrist -25.9309
rhand 15.6363 13.973
rfingers 7.12502
rthumb 40.4502 -11.1157
lclavicle 6.43068e-014 3.97569e-015
lhumerus -10.023 -57.1436 105.38
lradius 126.43
lwrist 68.6544
lhand -43.9536 35.3446
lfingers 7.12502
lthumb -16.7765 64.6398
rfemur -15.2219 -12.3421 30.1815
rtibia 30.1675
rfoot -23.4638 -29.5889
rtoes -1.74271
lfemur -23.5566 -21.8324 -0.699968
ltibia 16.1283
lfoot -0.794861 7.31657
ltoes -34.5601
3328
root -0.33496 17.4086 3.17772 -1430.57 130.382 -1435.35
lowerback -2.47958 5.37443 -8.06675
upperback 1.67624 7.49658 -0.114493
thorax 2.1188 3.61652 4.61317
lowerneck -4.43505 -12.7213 -9.11021
upperneck 28.3711 -20.7796 24.2088
head 14.49 -6.80951 8.60598
rclavicle 9.85972e-014 -3.97569e-015
rhumerus 109.058 30.0821 17.6837
rradius 77.014
rwrist -26.565
rhand 14.9285 14.5306
rfingers 7.12502
rthumb 39.7843 -10.7601
lclavicle 9.85972e-014 -3.97569e-015
lhumerus -9.64872 -57.1072 105.243
lradius 126.402
lwrist 68.4627
lhand -44.0774 35.8541
lfingers 7.12502
lthumb -16.8957 65.1392
rfemur -15.1996 -12.4142 30.3016
rtibia 30.1085
rfoot -23.4568 -29.9552
rtoes -1.58374
lfemur -23.7787 -21.5718 -0.812217
ltibia 16.1633
lfoot -0.491233 6.91313
ltoes -34.1073
3329
root -0.340496 17.4129 3.20022 -1430.77 130.896 -1435.48
lowerback -2.38214 5.39884 -7.9711
upperback 1.64301 7.51172 -0.0488473
thorax 2.03008 3.62972 4.61563
lowerneck -4.29665 -12.7731 -9.16032
upperneck 28.4081 -20.8147 24.1834
head 14.4866 -6.82892 8.60968
rclavicle 1.00983e-013 -1.35174e-014
rhumerus 109.133 29.7989 17.8237
rradius 78.1301
rwrist -27.2135
rhand 14.432 15.1613
rfingers 7.12502
rthumb 39.3167 -10.2673
lclavicle 1.00983e-013 -1.35174e-014
lhumerus -9.55136 -57.1661 105.225
lradius 126.437
lwrist 67.9423
lhand -44.0547 36.5858
lfingers 7.12502
lthumb -16.8739 65.8727
rfemur -15.1453 -12.4496 30.3328
rtibia 30.0379
rfoot -23.6666 -30.1917
rtoes -1.08701
lfemur -24.0032 -21.4889 -0.949732
ltibia 16.2464
lfoot 0.0549109 6.40054
ltoes -35.3371
3330
root -0.345847 17.4185 3.22066 -1431.01 131.41 -1435.6
lowerback -2.19895 5.43936 -7.78432
upperback 1.62648 7.54089 -0.0338659
thorax 1.92696 3.65219 4.50847
lowerneck -4.2777 -12.8356 -9.10365
upperneck 28.4382 -20.8871 24.1877
head 14.5095 -6.83895 8.59557
rclavicle -4.31363e-014 -7.95139e-016
rhumerus 109.245 29.5709 17.8166
rradius 79.0808
rwrist -27.543
rhand 14.094 15.6958
rfingers 7.12502
rthumb 38.9982 -9.82478
lclavicle -4.31363e-014 -7.95139e-016
lhumerus -9.42296 -57.0313 105.089
lradius 126.176
lwrist 68.7243
lhand -43.8765 35.0718
lfingers 7.12502
lthumb -16.7023 64.3733
rfemur -15.0221 -12.5503 30.349
rtibia 29.9388
rfoot -23.8201 -30.398
rtoes -0.162058
lfemur -24.1949 -21.4669 -1.09294
ltibia 16.3753
lfoot 0.472196 5.89735
ltoes -36.3144
3331
root -0.351551 17.4239 3.23843 -1431.25 131.91 -1435.76
lowerback -2.11866 5.45956 -7.67483
upperback 1.64129 7.55645 0.00834621
thorax 1.90302 3.66208 4.48455
lowerneck -4.27552 -12.8943 -9.00845
upperneck 28.3853 -20.9431 24.1276
head 14.4731 -6.8549 8.53273
rclavicle -8.17005e-014 1.51076e-014
rhumerus 109.486 29.2557 17.8678
rradius 80.0778
rwrist -27.8233
rhand 13.5908 15.6831
rfingers 7.12502
rthumb 38.5236 -9.97169
lclavicle -8.17005e-014 1.51076e-014
lhumerus -9.1718 -56.7013 104.908
lradius 125.691
lwrist 70.2586
lhand -43.3452 32.3418
lfingers 7.12502
lthumb -16.1908 61.6856
rfemur -14.8959 -12.6689 30.3262
rtibia 29.796
rfoot -23.9135 -30.6029
rtoes 0.485372
lfemur -24.4051 -21.4342 -1.272
ltibia 16.5294
lfoot 0.712741 5.50773
ltoes -36.1004
